<svg width="88" height="36" viewBox="0 0 88 36" fill="none" xmlns="http://www.w3.org/2000/svg">
<rect y="32" width="46" height="4" fill="#118FFF"/>
<path d="M10.227 15.44C11.081 15.622 11.767 16.049 12.285 16.721C12.803 17.379 13.062 18.135 13.062 18.989C13.062 20.221 12.628 21.201 11.76 21.929C10.906 22.643 9.709 23 8.169 23H1.302V8.258H7.938C9.436 8.258 10.605 8.601 11.445 9.287C12.299 9.973 12.726 10.904 12.726 12.08C12.726 12.948 12.495 13.669 12.033 14.243C11.585 14.817 10.983 15.216 10.227 15.44ZM4.893 14.222H7.245C7.833 14.222 8.281 14.096 8.589 13.844C8.911 13.578 9.072 13.193 9.072 12.689C9.072 12.185 8.911 11.8 8.589 11.534C8.281 11.268 7.833 11.135 7.245 11.135H4.893V14.222ZM7.539 20.102C8.141 20.102 8.603 19.969 8.925 19.703C9.261 19.423 9.429 19.024 9.429 18.506C9.429 17.988 9.254 17.582 8.904 17.288C8.568 16.994 8.099 16.847 7.497 16.847H4.893V20.102H7.539ZM16.9508 10.064C16.3208 10.064 15.8028 9.882 15.3968 9.518C15.0048 9.14 14.8088 8.678 14.8088 8.132C14.8088 7.572 15.0048 7.11 15.3968 6.746C15.8028 6.368 16.3208 6.179 16.9508 6.179C17.5668 6.179 18.0708 6.368 18.4628 6.746C18.8688 7.11 19.0718 7.572 19.0718 8.132C19.0718 8.678 18.8688 9.14 18.4628 9.518C18.0708 9.882 17.5668 10.064 16.9508 10.064ZM18.7358 11.282V23H15.1448V11.282H18.7358ZM28.4781 11.156C29.8501 11.156 30.9421 11.604 31.7541 12.5C32.5801 13.382 32.9931 14.6 32.9931 16.154V23H29.4231V16.637C29.4231 15.853 29.2201 15.244 28.8141 14.81C28.4081 14.376 27.8621 14.159 27.1761 14.159C26.4901 14.159 25.9441 14.376 25.5381 14.81C25.1321 15.244 24.9291 15.853 24.9291 16.637V23H21.3381V11.282H24.9291V12.836C25.2931 12.318 25.7831 11.912 26.3991 11.618C27.0151 11.31 27.7081 11.156 28.4781 11.156ZM35.0055 20.123C35.4815 19.745 35.6985 19.57 35.6565 19.598C37.0285 18.464 38.1065 17.533 38.8905 16.805C39.6885 16.077 40.3605 15.314 40.9065 14.516C41.4525 13.718 41.7255 12.941 41.7255 12.185C41.7255 11.611 41.5925 11.163 41.3265 10.841C41.0605 10.519 40.6615 10.358 40.1295 10.358C39.5975 10.358 39.1775 10.561 38.8695 10.967C38.5755 11.359 38.4285 11.919 38.4285 12.647H34.9635C34.9915 11.457 35.2435 10.463 35.7195 9.665C36.2095 8.867 36.8465 8.279 37.6305 7.901C38.4285 7.523 39.3105 7.334 40.2765 7.334C41.9425 7.334 43.1955 7.761 44.0355 8.615C44.8895 9.469 45.3165 10.582 45.3165 11.954C45.3165 13.452 44.8055 14.845 43.7835 16.133C42.7615 17.407 41.4595 18.653 39.8775 19.871H45.5475V22.79H35.0055V20.123ZM53.0086 8.258C54.5626 8.258 55.9206 8.566 57.0826 9.182C58.2446 9.798 59.1406 10.666 59.7706 11.786C60.4146 12.892 60.7366 14.173 60.7366 15.629C60.7366 17.071 60.4146 18.352 59.7706 19.472C59.1406 20.592 58.2376 21.46 57.0616 22.076C55.8996 22.692 54.5486 23 53.0086 23H47.4856V8.258H53.0086ZM52.7776 19.892C54.1356 19.892 55.1926 19.521 55.9486 18.779C56.7046 18.037 57.0826 16.987 57.0826 15.629C57.0826 14.271 56.7046 13.214 55.9486 12.458C55.1926 11.702 54.1356 11.324 52.7776 11.324H51.0766V19.892H52.7776ZM73.7894 16.952C73.7894 17.288 73.7684 17.638 73.7264 18.002H65.5994C65.6554 18.73 65.8864 19.29 66.2924 19.682C66.7124 20.06 67.2234 20.249 67.8254 20.249C68.7214 20.249 69.3444 19.871 69.6944 19.115H73.5164C73.3204 19.885 72.9634 20.578 72.4454 21.194C71.9414 21.81 71.3044 22.293 70.5344 22.643C69.7644 22.993 68.9034 23.168 67.9514 23.168C66.8034 23.168 65.7814 22.923 64.8854 22.433C63.9894 21.943 63.2894 21.243 62.7854 20.333C62.2814 19.423 62.0294 18.359 62.0294 17.141C62.0294 15.923 62.2744 14.859 62.7644 13.949C63.2684 13.039 63.9684 12.339 64.8644 11.849C65.7604 11.359 66.7894 11.114 67.9514 11.114C69.0854 11.114 70.0934 11.352 70.9754 11.828C71.8574 12.304 72.5434 12.983 73.0334 13.865C73.5374 14.747 73.7894 15.776 73.7894 16.952ZM70.1144 16.007C70.1144 15.391 69.9044 14.901 69.4844 14.537C69.0644 14.173 68.5394 13.991 67.9094 13.991C67.3074 13.991 66.7964 14.166 66.3764 14.516C65.9704 14.866 65.7184 15.363 65.6204 16.007H70.1144ZM74.9698 17.141C74.9698 15.923 75.2148 14.859 75.7048 13.949C76.2088 13.039 76.9018 12.339 77.7838 11.849C78.6798 11.359 79.7018 11.114 80.8498 11.114C82.3198 11.114 83.5448 11.499 84.5248 12.269C85.5188 13.039 86.1698 14.124 86.4778 15.524H82.6558C82.3338 14.628 81.7108 14.18 80.7868 14.18C80.1288 14.18 79.6038 14.439 79.2118 14.957C78.8198 15.461 78.6238 16.189 78.6238 17.141C78.6238 18.093 78.8198 18.828 79.2118 19.346C79.6038 19.85 80.1288 20.102 80.7868 20.102C81.7108 20.102 82.3338 19.654 82.6558 18.758H86.4778C86.1698 20.13 85.5188 21.208 84.5248 21.992C83.5308 22.776 82.3058 23.168 80.8498 23.168C79.7018 23.168 78.6798 22.923 77.7838 22.433C76.9018 21.943 76.2088 21.243 75.7048 20.333C75.2148 19.423 74.9698 18.359 74.9698 17.141Z" fill="#242555"/>
</svg>
