<svg width="101" height="27" viewBox="0 0 101 27" fill="none" xmlns="http://www.w3.org/2000/svg">
<path d="M35.668 13.538C36.124 13.61 36.538 13.796 36.91 14.096C37.294 14.396 37.594 14.768 37.81 15.212C38.038 15.656 38.152 16.13 38.152 16.634C38.152 17.27 37.99 17.846 37.666 18.362C37.342 18.866 36.868 19.268 36.244 19.568C35.632 19.856 34.906 20 34.066 20H29.386V7.454H33.886C34.738 7.454 35.464 7.598 36.064 7.886C36.664 8.162 37.114 8.54 37.414 9.02C37.714 9.5 37.864 10.04 37.864 10.64C37.864 11.384 37.66 12.002 37.252 12.494C36.856 12.974 36.328 13.322 35.668 13.538ZM31.024 12.872H33.778C34.546 12.872 35.14 12.692 35.56 12.332C35.98 11.972 36.19 11.474 36.19 10.838C36.19 10.202 35.98 9.704 35.56 9.344C35.14 8.984 34.534 8.804 33.742 8.804H31.024V12.872ZM33.922 18.65C34.738 18.65 35.374 18.458 35.83 18.074C36.286 17.69 36.514 17.156 36.514 16.472C36.514 15.776 36.274 15.23 35.794 14.834C35.314 14.426 34.672 14.222 33.868 14.222H31.024V18.65H33.922ZM41.2711 8.534C40.9591 8.534 40.6951 8.426 40.4791 8.21C40.2631 7.994 40.1551 7.73 40.1551 7.418C40.1551 7.106 40.2631 6.842 40.4791 6.626C40.6951 6.41 40.9591 6.302 41.2711 6.302C41.5711 6.302 41.8231 6.41 42.0271 6.626C42.2431 6.842 42.3511 7.106 42.3511 7.418C42.3511 7.73 42.2431 7.994 42.0271 8.21C41.8231 8.426 41.5711 8.534 41.2711 8.534ZM42.0631 10.136V20H40.4251V10.136H42.0631ZM49.6608 9.956C50.8608 9.956 51.8328 10.322 52.5768 11.054C53.3208 11.774 53.6928 12.818 53.6928 14.186V20H52.0728V14.42C52.0728 13.436 51.8268 12.686 51.3348 12.17C50.8428 11.642 50.1708 11.378 49.3188 11.378C48.4548 11.378 47.7648 11.648 47.2488 12.188C46.7448 12.728 46.4928 13.514 46.4928 14.546V20H44.8548V10.136H46.4928V11.54C46.8168 11.036 47.2548 10.646 47.8068 10.37C48.3708 10.094 48.9888 9.956 49.6608 9.956ZM55.6844 17.534C56.0924 17.21 56.2784 17.06 56.2424 17.084C57.4184 16.112 58.3424 15.314 59.0144 14.69C59.6984 14.066 60.2744 13.412 60.7424 12.728C61.2104 12.044 61.4444 11.378 61.4444 10.73C61.4444 10.238 61.3304 9.854 61.1024 9.578C60.8744 9.302 60.5324 9.164 60.0764 9.164C59.6204 9.164 59.2604 9.338 58.9964 9.686C58.7444 10.022 58.6184 10.502 58.6184 11.126H55.6484C55.6724 10.106 55.8884 9.254 56.2964 8.57C56.7164 7.886 57.2624 7.382 57.9344 7.058C58.6184 6.734 59.3744 6.572 60.2024 6.572C61.6304 6.572 62.7044 6.938 63.4244 7.67C64.1564 8.402 64.5224 9.356 64.5224 10.532C64.5224 11.816 64.0844 13.01 63.2084 14.114C62.3324 15.206 61.2164 16.274 59.8604 17.318H64.7204V19.82H55.6844V17.534ZM70.5576 7.454C71.9256 7.454 73.1076 7.712 74.1036 8.228C75.1116 8.732 75.8796 9.458 76.4076 10.406C76.9476 11.354 77.2176 12.47 77.2176 13.754C77.2176 15.038 76.9476 16.154 76.4076 17.102C75.8796 18.038 75.1116 18.758 74.1036 19.262C73.1076 19.754 71.9256 20 70.5576 20H66.6516V7.454H70.5576ZM70.5576 18.65C72.1776 18.65 73.4136 18.224 74.2656 17.372C75.1176 16.508 75.5436 15.302 75.5436 13.754C75.5436 12.194 75.1116 10.976 74.2476 10.1C73.3956 9.224 72.1656 8.786 70.5576 8.786H68.2896V18.65H70.5576ZM88.3782 14.69C88.3782 15.002 88.3602 15.332 88.3242 15.68H80.4402C80.5002 16.652 80.8302 17.414 81.4302 17.966C82.0422 18.506 82.7802 18.776 83.6442 18.776C84.3522 18.776 84.9402 18.614 85.4082 18.29C85.8882 17.954 86.2242 17.51 86.4162 16.958H88.1802C87.9162 17.906 87.3882 18.68 86.5962 19.28C85.8042 19.868 84.8202 20.162 83.6442 20.162C82.7082 20.162 81.8682 19.952 81.1242 19.532C80.3922 19.112 79.8162 18.518 79.3962 17.75C78.9762 16.97 78.7662 16.07 78.7662 15.05C78.7662 14.03 78.9702 13.136 79.3782 12.368C79.7862 11.6 80.3562 11.012 81.0882 10.604C81.8322 10.184 82.6842 9.974 83.6442 9.974C84.5802 9.974 85.4082 10.178 86.1282 10.586C86.8482 10.994 87.4002 11.558 87.7842 12.278C88.1802 12.986 88.3782 13.79 88.3782 14.69ZM86.6862 14.348C86.6862 13.724 86.5482 13.19 86.2722 12.746C85.9962 12.29 85.6182 11.948 85.1382 11.72C84.6702 11.48 84.1482 11.36 83.5722 11.36C82.7442 11.36 82.0362 11.624 81.4482 12.152C80.8722 12.68 80.5422 13.412 80.4582 14.348H86.6862ZM89.9283 15.05C89.9283 14.03 90.1323 13.142 90.5403 12.386C90.9483 11.618 91.5123 11.024 92.2323 10.604C92.9643 10.184 93.7983 9.974 94.7343 9.974C95.9463 9.974 96.9423 10.268 97.7223 10.856C98.5143 11.444 99.0363 12.26 99.2883 13.304H97.5243C97.3563 12.704 97.0263 12.23 96.5343 11.882C96.0543 11.534 95.4543 11.36 94.7343 11.36C93.7983 11.36 93.0423 11.684 92.4663 12.332C91.8903 12.968 91.6023 13.874 91.6023 15.05C91.6023 16.238 91.8903 17.156 92.4663 17.804C93.0423 18.452 93.7983 18.776 94.7343 18.776C95.4543 18.776 96.0543 18.608 96.5343 18.272C97.0143 17.936 97.3443 17.456 97.5243 16.832H99.2883C99.0243 17.84 98.4963 18.65 97.7043 19.262C96.9123 19.862 95.9223 20.162 94.7343 20.162C93.7983 20.162 92.9643 19.952 92.2323 19.532C91.5123 19.112 90.9483 18.518 90.5403 17.75C90.1323 16.982 89.9283 16.082 89.9283 15.05Z" fill="#242555"/>
<path d="M3.79313 23.9885C3.65726 23.9887 3.52268 23.962 3.39715 23.91C3.27161 23.858 3.15759 23.7817 3.06163 23.6855L0.303012 20.9269C0.158329 20.7822 0.0597986 20.5979 0.0198798 20.3972C-0.020039 20.1966 0.000447193 19.9886 0.0787477 19.7995C0.157048 19.6105 0.289646 19.4489 0.459772 19.3353C0.629899 19.2216 0.829913 19.1609 1.03452 19.1609H14.8276C15.6507 19.1609 16.4401 18.834 17.0221 18.252C17.6041 17.6699 17.931 16.8806 17.931 16.0575C17.931 15.2344 17.6041 14.445 17.0221 13.863C16.4401 13.281 15.6507 12.954 14.8276 12.954H5.17244C4.89808 12.954 4.63496 12.8451 4.44095 12.6511C4.24695 12.457 4.13796 12.1939 4.13796 11.9196C4.13796 11.6452 4.24695 11.3821 4.44095 11.1881C4.63496 10.9941 4.89808 10.8851 5.17244 10.8851H14.8276C16.1994 10.8851 17.515 11.43 18.485 12.4C19.4551 13.3701 20 14.6857 20 16.0575C20 17.4293 19.4551 18.7449 18.485 19.7149C17.515 20.6849 16.1994 21.2299 14.8276 21.2299H3.53197L4.52464 22.2225C4.66932 22.3672 4.76785 22.5515 4.80777 22.7522C4.84769 22.9529 4.82721 23.1609 4.74891 23.3499C4.67061 23.5389 4.53801 23.7005 4.36788 23.8142C4.19775 23.9278 3.99774 23.9885 3.79313 23.9885Z" fill="#242555"/>
<path d="M14.8276 17.092H5.17244C3.80064 17.092 2.48501 16.547 1.515 15.577C0.544986 14.607 3.81462e-05 13.2914 3.81462e-05 11.9196C3.81462e-05 10.5478 0.544986 9.23214 1.515 8.26212C2.48501 7.29211 3.80064 6.74716 5.17244 6.74716H16.4957L15.5129 5.74871C15.3254 5.55225 15.2227 5.28994 15.2269 5.0184C15.2312 4.74685 15.342 4.48786 15.5355 4.29732C15.729 4.10679 15.9897 4 16.2613 4C16.5329 4 16.7936 4.1068 16.9871 4.29734L19.7026 7.05595C19.8456 7.20126 19.9425 7.38559 19.9811 7.58579C20.0197 7.786 19.9983 7.99314 19.9195 8.18121C19.8408 8.36928 19.7082 8.52988 19.5385 8.64284C19.3687 8.7558 19.1694 8.81609 18.9655 8.81612H5.17244C4.34936 8.81612 3.55999 9.14309 2.97798 9.7251C2.39597 10.3071 2.069 11.0965 2.069 11.9196C2.069 12.7426 2.39597 13.532 2.97798 14.114C3.55999 14.696 4.34936 15.023 5.17244 15.023H14.8276C15.102 15.023 15.3651 15.132 15.5591 15.326C15.7531 15.52 15.8621 15.7831 15.8621 16.0575C15.8621 16.3318 15.7531 16.595 15.5591 16.789C15.3651 16.983 15.102 17.092 14.8276 17.092Z" fill="#242555"/>
</svg>
